<?xml version="1.0" encoding="UTF-8"?>
<svg version="1.1" xmlns="http://www.w3.org/2000/svg" width="3000" height="2250">
<path d="M0 0 C0.66 0 1.32 0 2 0 C2.10032587 5.1370704 2.17214084 10.27354682 2.21972656 15.41137695 C2.23960335 17.15203813 2.26671465 18.89263474 2.30175781 20.63305664 C2.58837914 35.25495941 0.88389713 47.83392126 -5.375 61.25 C-5.67680176 61.91273926 -5.97860352 62.57547852 -6.28955078 63.25830078 C-7.1760383 65.18080946 -8.08349736 67.0916516 -9 69 C-9.4846875 70.02351563 -9.969375 71.04703125 -10.46875 72.1015625 C-13.99008758 79.04642273 -18.52377937 84.49454688 -24 90 C-24.77730469 90.82951172 -24.77730469 90.82951172 -25.5703125 91.67578125 C-37.079168 102.85322992 -54.90503378 106.85141314 -69.89453125 110.8359375 C-88.57099973 115.82223195 -104.96558632 120.44284767 -120 133 C-86.68148461 137.65201913 -42.12729473 127.38508433 -14.62109375 107.98828125 C-5.93771754 101.40133864 0.25849367 93.05654021 2 82 C3.32 82.33 4.64 82.66 6 83 C17.86760536 118.83325503 10.8041562 157.70488988 -5.83203125 190.9296875 C-11.44814786 201.69499186 -18.03987296 211.82004995 -26 221 C-26.70769531 221.82886719 -27.41539062 222.65773438 -28.14453125 223.51171875 C-46.09778582 244.04319902 -69.61465431 256.99261705 -93.16992188 270.04052734 C-98.35707307 272.92019503 -103.45757562 275.82896656 -108.38110352 279.14355469 C-110 280 -110 280 -113 280 C-104.30641761 290.89234836 -93.45236848 300.2026013 -82.59765625 308.8671875 C-79.86445114 311.11129275 -77.27863407 313.46867753 -74.6875 315.875 C-70.07919939 320.11620981 -65.28429105 323.99478028 -60.33496094 327.8215332 C-56.2769301 330.96788927 -52.33368787 334.21836055 -48.4375 337.5625 C-42.64459046 342.52058515 -36.666767 347.18924754 -30.58984375 351.79248047 C-28.04889966 353.72238057 -25.5257871 355.67532671 -23 357.625 C-20.66827902 359.41877048 -18.33439961 361.20971723 -16 363 C-15.23655273 363.58555664 -14.47310547 364.17111328 -13.68652344 364.77441406 C-3.5568633 372.53640919 6.61386889 380.23317245 16.90478516 387.78027344 C23.48007811 392.60479726 30.00453118 397.49469576 36.52197266 402.39697266 C42.13424023 406.61353351 47.77680975 410.78624847 53.4375 414.9375 C62.12113557 421.31046859 70.68974319 427.82866186 79.24609375 434.37109375 C82.98191886 437.22703856 86.73271885 440.06070696 90.5 442.875 C109.90523097 457.38769398 128.97553601 472.39448868 147.41601562 488.1171875 C150.75792088 490.96384154 154.14417724 493.74580852 157.5625 496.5 C162.64039439 500.63041555 167.44563853 505.00831768 172.2421875 509.45703125 C174.40340548 511.44988239 176.58346969 513.39707785 178.8125 515.3125 C190.15049575 525.20747811 200.85254753 535.75004975 211.5 546.375 C212.06612 546.9385318 212.63223999 547.5020636 213.21551514 548.08267212 C219.36423491 554.2092229 225.36370957 560.39273572 231 567 C232.61967817 568.77570221 234.24411718 570.54708307 235.875 572.3125 C240.79507305 577.71493316 245.44355013 583.28914757 250 589 C250.40798828 589.50837402 250.81597656 590.01674805 251.23632812 590.54052734 C305.44001002 658.17099914 341.52885188 736.52781459 367 913 C367.03504639 914.25103516 367.03504639 914.25103516 367.07080078 915.52734375 C369.00731287 994.81042676 352.27816665 1075.84910396 311 1163 C310.50886719 1163.98484375 310.01773438 1164.9696875 309.51171875 1165.984375 C299.50613892 1185.94273476 287.98392338 1204.8430623 275 1223 C274.45730469 1223.76054688 273.91460938 1224.52109375 273.35546875 1225.3046875 C265.70364586 1235.97923953 257.71473025 1246.17635947 249 1256 C247.77024445 1257.41615551 246.54098098 1258.83273869 245.3125 1260.25 C244.20941113 1261.50095123 243.10507245 1262.75080069 242 1264 C241.3719043 1264.71293213 240.74380859 1265.42586426 240.09667969 1266.16040039 C234.70404815 1272.22305953 229.11102259 1278.04508416 223.36108398 1283.76928711 C221.93160283 1285.19337492 220.50759489 1286.62278044 219.08398438 1288.05273438 C213.88451268 1293.2449695 208.60199842 1298.2459218 203 1303 C201.97860845 1303.88868174 200.9577399 1304.7779651 199.9375 1305.66796875 C191.57231137 1312.84289783 182.91126426 1319.51854178 174 1326 C173.2486377 1326.55059082 172.49727539 1327.10118164 171.72314453 1327.66845703 C158.35690856 1337.42099288 144.45406192 1345.95785394 130 1354 C128.66799561 1354.74443359 128.66799561 1354.74443359 127.30908203 1355.50390625 C74.37449436 1384.84427805 11.08507972 1402.96781452 -49.65625 1403.203125 C-50.83803833 1403.20882507 -52.01982666 1403.21452515 -53.23742676 1403.22039795 C-55.73168053 1403.22979026 -58.2259464 1403.23635878 -60.72021484 1403.24023438 C-64.4348078 1403.24983157 -68.14882018 1403.28086653 -71.86328125 1403.3125 C-150.25443091 1403.65959956 -230.05034313 1377.94369968 -291 1328 C-291.50966309 1327.58508301 -292.01932617 1327.17016602 -292.54443359 1326.74267578 C-313.65754747 1309.48832176 -332.07902191 1290.14291694 -348.5625 1268.4375 C-349.36905029 1267.38187866 -349.36905029 1267.38187866 -350.19189453 1266.30493164 C-350.93415283 1265.31674438 -350.93415283 1265.31674438 -351.69140625 1264.30859375 C-352.13685791 1263.71876709 -352.58230957 1263.12894043 -353.04125977 1262.52124023 C-354 1261 -354 1261 -354 1259 C-363.89880744 1266.55334915 -372.47053179 1275.27084344 -381.1875 1284.125 C-383.31176327 1286.27711532 -385.43758564 1288.4276327 -387.56648254 1290.57516479 C-388.87950567 1291.90020516 -390.1898539 1293.22790427 -391.49687195 1294.55886841 C-395.24231385 1298.34477173 -399.10744853 1301.91647541 -403.15786743 1305.37489319 C-406.33997151 1308.18210647 -409.23746331 1311.26594266 -412.1875 1314.3125 C-418.17300637 1320.37763451 -424.27684735 1325.71531007 -431.20556641 1330.70166016 C-433.1774622 1332.12840054 -435.12562196 1333.58458499 -437.07421875 1335.04296875 C-491.263028 1375.29247582 -557.81856765 1401.78358901 -626.14892578 1391.80029297 C-669.59568249 1384.82563285 -709.19046858 1364.67095531 -741.21484375 1334.59765625 C-743.70292237 1332.27707802 -746.23925981 1330.03741665 -748.8125 1327.8125 C-752.23653008 1324.78189528 -755.26372324 1321.58990328 -758.2109375 1318.09765625 C-760.12146138 1315.85758786 -762.11935224 1313.71765968 -764.125 1311.5625 C-774.56558104 1299.96580692 -783.65638313 1287.1662701 -792 1274 C-792.36512695 1273.42668945 -792.73025391 1272.85337891 -793.10644531 1272.26269531 C-837.39694973 1202.15261433 -865.49073399 1103.29786822 -850.5625 1020.0625 C-850.37917114 1019.02258911 -850.37917114 1019.02258911 -850.19213867 1017.96166992 C-849.8665315 1016.29216624 -849.44182523 1014.64257512 -849 1013 C-848.34 1012.67 -847.68 1012.34 -847 1012 C-846.86013672 1012.62116699 -846.72027344 1013.24233398 -846.57617188 1013.88232422 C-831.93000174 1078.31840876 -806.56482864 1149.70139694 -765 1202 C-764.29617188 1202.89589844 -763.59234375 1203.79179688 -762.8671875 1204.71484375 C-753.86441764 1215.96023908 -744.47443456 1226.235934 -733 1235 C-731.61748047 1236.10601563 -731.61748047 1236.10601563 -730.20703125 1237.234375 C-709.85016395 1253.16822524 -685.49330121 1262.81346467 -660.375 1268.25 C-659.68494873 1268.40106201 -658.99489746 1268.55212402 -658.28393555 1268.70776367 C-644.43310587 1271.51530009 -630.53400784 1272.38345494 -616.4375 1272.3125 C-615.65763733 1272.31034485 -614.87777466 1272.3081897 -614.07427979 1272.30596924 C-600.54257564 1272.24638552 -587.33139272 1271.47020858 -574 1269 C-573.0104834 1268.81727539 -572.0209668 1268.63455078 -571.00146484 1268.44628906 C-545.78929453 1263.58351417 -520.33739182 1255.45835235 -497.27734375 1244.11816406 C-494.91463748 1242.95808744 -492.53682555 1241.83383258 -490.15625 1240.7109375 C-461.03350808 1226.77705092 -433.83981294 1208.12365352 -410.26953125 1186.0390625 C-408 1184 -408 1184 -405.32421875 1182.0234375 C-404.47472656 1181.37632813 -403.62523437 1180.72921875 -402.75 1180.0625 C-401.98171875 1179.51722656 -401.2134375 1178.97195313 -400.421875 1178.41015625 C-398.36338723 1174.92090638 -399.27272316 1172.62738414 -400.21728516 1168.79907227 C-400.604729 1167.41353149 -400.604729 1167.41353149 -401 1166 C-401.37390869 1164.63862915 -401.37390869 1164.63862915 -401.75537109 1163.24975586 C-402.58683738 1160.30593645 -403.44981543 1157.3723099 -404.3125 1154.4375 C-417.00431032 1109.9698434 -420.35725783 1063.670525 -413 1018 C-409.67660215 1021.01002311 -407.76245144 1023.96717389 -405.75 1027.9609375 C-405.30815872 1028.82801834 -405.30815872 1028.82801834 -404.85739136 1029.71261597 C-404.22650746 1030.95213769 -403.59898583 1032.1933755 -402.97454834 1033.43615723 C-401.3143287 1036.73912816 -399.62863674 1040.02907356 -397.9453125 1043.3203125 C-397.60847443 1043.98035278 -397.27163635 1044.64039307 -396.92459106 1045.32043457 C-394.00883046 1051.01976308 -390.96991166 1056.64595449 -387.875 1062.25 C-383.0658328 1070.97589497 -378.4485725 1079.79046725 -373.87695312 1088.64282227 C-369.65350647 1096.79868494 -365.29967757 1104.87680143 -360.86914062 1112.921875 C-354 1125.40256046 -354 1125.40256046 -354 1128 C-353.34 1128 -352.68 1128 -352 1128 C-351.78085938 1127.46890625 -351.56171875 1126.9378125 -351.3359375 1126.390625 C-349.51950649 1123.14016951 -347.08618844 1120.51757176 -344.625 1117.75 C-338.57796583 1110.81680975 -333.0398633 1103.58816995 -327.59912109 1096.17431641 C-325.91484475 1093.88421487 -324.21820428 1091.60365875 -322.51953125 1089.32421875 C-315.1152825 1079.36754855 -307.92712436 1069.29406356 -301 1059 C-300.52884766 1058.30084473 -300.05769531 1057.60168945 -299.57226562 1056.88134766 C-290.22531175 1042.9888291 -281.0659255 1028.97120181 -272.078125 1014.84375 C-263.94618194 1002.06386451 -255.68451815 989.41194408 -247 977 C-246.56526367 976.37625488 -246.13052734 975.75250977 -245.68261719 975.10986328 C-235.49305013 960.5244074 -224.69445634 946.41157126 -213 933 C-211.95005859 931.78183594 -211.95005859 931.78183594 -210.87890625 930.5390625 C-200.58597995 918.82575128 -189.50573104 907.3502345 -177 898 C-176.40171387 897.54705566 -175.80342773 897.09411133 -175.18701172 896.62744141 C-142.22992328 871.84638729 -102.95932734 859.5688075 -61.60400391 864.71777344 C-23.78060261 870.40780568 8.84393921 893.05418829 39.88647461 913.92797852 C51.3819355 921.64858164 63.0360807 929.01987827 75 936 C75.79889648 936.46825195 76.59779297 936.93650391 77.42089844 937.41894531 C107.44567705 954.90535644 142.1583283 968.99735151 177.31420898 959.77075195 C190.3480882 956.01354086 202.75434049 951.02173733 210 939 C219.93075331 920.15104078 212.6185589 893.28155117 206.7265625 874.14453125 C198.96297554 850.27620248 185.28782703 830.01925691 168 812 C167.24178955 811.20094238 167.24178955 811.20094238 166.46826172 810.38574219 C158.56314238 802.08869457 150.23300419 794.78313898 141 788 C140.02571045 787.28312012 140.02571045 787.28312012 139.03173828 786.55175781 C115.05796058 769.03756529 89.16307759 754.64613218 63.27075195 740.20629883 C52.09035856 733.95773156 41.0194156 727.52782747 30 721 C29.17918945 720.5143457 28.35837891 720.02869141 27.51269531 719.52832031 C-23.78426919 689.0487518 -71.63236667 649.14150109 -87 589 C-91.51149726 570.19896177 -94.37419031 551.78835632 -94.37060547 532.44995117 C-94.37496667 529.83250171 -94.41140644 527.21676171 -94.44921875 524.59960938 C-94.54635718 510.05117017 -93.21121316 495.33021901 -87 482 C-85.1484375 482.23266602 -85.1484375 482.23266602 -83 483 C-81.7265625 484.84741211 -81.7265625 484.84741211 -80.625 487.27734375 C-80.20323486 488.17485352 -79.78146973 489.07236328 -79.34692383 489.99707031 C-78.90243896 490.96741211 -78.4579541 491.93775391 -78 492.9375 C-71.04030521 507.48452922 -62.4670377 520.7176458 -52 533 C-51.06479103 534.11953016 -50.12992083 535.23934337 -49.1953125 536.359375 C-31.58479453 557.32360237 -10.6169557 574.67299399 12 590 C12.90669434 590.61633301 13.81338867 591.23266602 14.74755859 591.86767578 C28.61747703 601.27120684 42.67856167 610.30198552 57 619 C58.06202637 619.64549805 59.12405273 620.29099609 60.21826172 620.95605469 C63.11088141 622.71345916 66.00396801 624.47008847 68.89743042 626.22610474 C70.6909072 627.31456784 72.48426334 628.40322946 74.27758789 629.49194336 C74.87108536 629.85222122 75.46458282 630.21249908 76.07606506 630.58369446 C77.27609512 631.31220162 78.47607676 632.04078855 79.67601013 632.76945496 C82.57662094 634.53054979 85.47861385 636.28925465 88.3828125 638.04443359 C121.85147477 658.28486425 153.52851782 680.13862923 182 707 C182.67675781 707.63421875 183.35351562 708.2684375 184.05078125 708.921875 C189.18153256 713.87570385 193.5676398 719.42497879 198 725 C199.19302734 726.45019531 199.19302734 726.45019531 200.41015625 727.9296875 C241.90998056 779.62360494 252.28027887 852.31292125 252.1875 916.625 C252.18689575 917.41381561 252.1862915 918.20263123 252.18566895 919.01535034 C252.08581865 967.72341836 249.92494571 1024.61617856 214.85546875 1062.3046875 C198.17557098 1078.2109351 174.51635775 1083.85439644 152.0625 1084.375 C106.58795506 1083.20088067 68.44837636 1057.95786183 31.66210938 1033.74609375 C-9.78337969 1006.56174509 -55.76547404 979.17681709 -107.22949219 989.44482422 C-133.2738988 995.1495181 -154.98157101 1009.87240669 -174.3828125 1027.62890625 C-175.8483605 1028.95664899 -177.32201311 1030.27601124 -178.82348633 1031.56298828 C-183.65834443 1035.71116657 -188.10854002 1040.07877131 -192.4375 1044.75 C-193.09218262 1045.45318359 -193.74686523 1046.15636719 -194.42138672 1046.88085938 C-199.52594453 1052.40353365 -204.32088082 1058.11310817 -209 1064 C-209.97831044 1065.18927873 -210.95894299 1066.37664961 -211.94140625 1067.5625 C-220.36412378 1077.75679492 -228.24026317 1088.29563228 -236 1099 C-237.12868184 1100.54834069 -238.25758503 1102.09652006 -239.38671875 1103.64453125 C-245.00616676 1111.36765734 -250.52256086 1119.15066146 -255.91137695 1127.03637695 C-267.41067581 1143.85807774 -279.29714082 1160.43191319 -291.5 1176.75 C-291.98017578 1177.39332275 -292.46035156 1178.03664551 -292.95507812 1178.69946289 C-293.41333984 1179.30910889 -293.87160156 1179.91875488 -294.34375 1180.546875 C-294.78074219 1181.13017578 -295.21773437 1181.71347656 -295.66796875 1182.31445312 C-297 1184 -297 1184 -298.48828125 1185.60742188 C-300.10166556 1187.29343857 -300.10166556 1187.29343857 -302 1190 C-301.74688787 1194.15773277 -300.35528018 1196.14895373 -297.45703125 1199.0390625 C-296.72025146 1199.77882324 -295.98347168 1200.51858398 -295.22436523 1201.28076172 C-294.42844971 1202.05436035 -293.63253418 1202.82795898 -292.8125 1203.625 C-291.99531494 1204.42824707 -291.17812988 1205.23149414 -290.33618164 1206.05908203 C-284.1370217 1212.0724064 -277.76290841 1217.62694404 -270.77929688 1222.70361328 C-268.91501161 1224.06192211 -267.07560151 1225.45047788 -265.234375 1226.83984375 C-197.51830724 1277.07838445 -110.2375311 1288.64265226 -28.60473633 1276.73657227 C44.18665534 1265.48401584 115.14065466 1236.97759241 175 1194 C175.79873535 1193.43039551 176.5974707 1192.86079102 177.42041016 1192.27392578 C188.05847383 1184.66331185 198.24874496 1176.71794631 208 1168 C208.90105469 1167.19820312 209.80210938 1166.39640625 210.73046875 1165.5703125 C212.3734664 1164.09798282 214.01173447 1162.62035302 215.64453125 1161.13671875 C217.23720096 1159.69195867 218.83906856 1158.25728381 220.44921875 1156.83203125 C229.55109172 1148.75894141 238.11540803 1140.26841831 246 1131 C246.85851563 1130.030625 247.71703125 1129.06125 248.6015625 1128.0625 C305.80429385 1063.17034769 336.73678589 971.21685703 333 885 C330.92519709 852.76693283 321.93766333 822.41190158 309 793 C308.66774414 792.23091309 308.33548828 791.46182617 307.99316406 790.66943359 C293.96543106 758.34627103 272.76929977 727.78047176 250 701 C249.55479004 700.47132324 249.10958008 699.94264648 248.65087891 699.39794922 C247.16743041 697.63657361 245.67850038 695.87998632 244.1875 694.125 C243.75034668 693.60832764 243.31319336 693.09165527 242.86279297 692.55932617 C233.1909675 681.2664194 222.81421384 670.65088187 212.28955078 660.15917969 C210.23482492 658.10986489 208.18556897 656.05518737 206.13671875 654 C204.80500835 652.66894975 203.47298812 651.33820939 202.140625 650.0078125 C201.54147278 649.40663605 200.94232056 648.80545959 200.32501221 648.18606567 C196.59253923 644.47383219 192.7364321 640.95252848 188.75111389 637.51300049 C186.52605644 635.59050246 184.35773463 633.60899733 182.1875 631.625 C177.94775995 627.80281011 173.59812452 624.15548045 169.16015625 620.56640625 C166.79762313 618.65576961 164.45607521 616.72155235 162.12109375 614.77734375 C153.66790557 607.74750731 145.09315108 600.92941756 136.328125 594.29296875 C132.56070368 591.43821126 128.83464602 588.53354086 125.11499023 585.61694336 C117.4951193 579.64531086 109.77456392 573.88381392 101.85742188 568.31445312 C98.30251101 565.79872756 94.77837366 563.24023776 91.25 560.6875 C90.49130615 560.13956787 89.7326123 559.59163574 88.95092773 559.02709961 C85.13542249 556.27103205 81.32410975 553.50941455 77.51953125 550.73828125 C69.14012346 544.64475092 60.68160001 538.69747628 52.11010742 532.87719727 C45.8695699 528.62713745 39.7357415 524.24409121 33.62890625 519.8046875 C28.61505776 516.160647 23.57106324 512.56394137 18.5 509 C-16.77443434 484.17649421 -51.45743657 458.41880548 -84.30419922 430.44140625 C-86.00234846 428.99800384 -87.70590193 427.56118577 -89.41015625 426.125 C-97.50185586 419.28073257 -105.29686229 412.16668132 -112.99658203 404.88574219 C-115.10095482 402.90497502 -117.2190098 400.93968737 -119.33984375 398.9765625 C-127.11196136 391.76248276 -134.573178 384.46756612 -141.61816406 376.53466797 C-143.68652712 374.2375425 -145.81053437 371.99379941 -147.92895508 369.74291992 C-153.90976873 363.37641395 -159.56238397 356.84087177 -165 350 C-165.94302074 348.83643679 -166.88709268 347.67372501 -167.83203125 346.51171875 C-174.83496113 337.87110742 -181.49836516 329.02293811 -188 320 C-204.76082899 327.86025084 -220.54955626 337.39555211 -235 349 C-235.51191895 349.41040527 -236.02383789 349.82081055 -236.55126953 350.24365234 C-250.31004048 361.35506038 -262.06921541 373.33167228 -272 388 C-272.59554687 388.86109375 -273.19109375 389.7221875 -273.8046875 390.609375 C-280.24131407 400.54779323 -284.20889825 412.34897178 -286 424 C-286.39638672 425.71896484 -286.39638672 425.71896484 -286.80078125 427.47265625 C-288.38124699 433.96787844 -288.38124699 433.96787844 -286.8125 440.16796875 C-284.97846243 441.95697415 -283.04237783 443.45557333 -281 445 C-279.88461865 446.20016093 -278.80166507 447.43113127 -277.75 448.6875 C-274.77032891 452.14151334 -271.71402584 455.51890988 -268.625 458.875 C-263.71184234 464.2161535 -258.84620545 469.59795736 -254 475 C-252.50028872 476.66692647 -251.00028679 478.33359149 -249.5 480 C-231.5 500 -231.5 500 -229.2734375 502.48046875 C-227.70383945 504.21997175 -226.12511297 505.95126606 -224.5390625 507.67578125 C-223.74242187 508.54589844 -222.94578125 509.41601562 -222.125 510.3125 C-221.40570312 511.09238281 -220.68640625 511.87226562 -219.9453125 512.67578125 C-218 515 -218 515 -215 520 C-239.75 544.75 -264.5 569.5 -290 595 C-287.3247384 599.46877015 -287.3247384 599.46877015 -284.109375 603.26953125 C-283.56829102 603.84413086 -283.02720703 604.41873047 -282.46972656 605.01074219 C-281.9022168 605.60532227 -281.33470703 606.19990234 -280.75 606.8125 C-279.57208626 608.06302042 -278.39499529 609.31431635 -277.21875 610.56640625 C-276.65800781 611.16211426 -276.09726563 611.75782227 -275.51953125 612.37158203 C-273.17059761 614.88883579 -270.91439022 617.48087832 -268.6640625 620.0859375 C-265.16708561 624.10828181 -261.57203589 628.04438979 -258 632 C-253.23213025 637.27985576 -248.48487782 642.57291806 -243.8125 647.9375 C-240.9673071 651.1751333 -238.07146164 654.3668629 -235.18359375 657.56640625 C-232.72511796 660.30635333 -230.30734829 663.0792673 -227.89453125 665.859375 C-224.73785176 669.42609739 -221.4816305 672.9024741 -218.234375 676.38671875 C-216.14995092 678.82462033 -214.60821275 681.23758001 -213 684 C-216.2681483 687.29312827 -219.53976696 690.58275765 -222.81445312 693.86938477 C-223.92475584 694.9846729 -225.03415429 696.10086211 -226.14257812 697.21801758 C-227.7488477 698.83660962 -229.35849442 700.45178072 -230.96875 702.06640625 C-231.45243042 702.55524796 -231.93611084 703.04408966 -232.43444824 703.54774475 C-235.11449444 706.22821277 -237.86436796 708.77037981 -240.74023438 711.24023438 C-245.79233358 715.62003499 -250.47514159 720.35043952 -255.1875 725.08984375 C-256.13991612 726.04412993 -257.09255695 726.99819188 -258.04541016 727.95204163 C-260.52666925 730.4370797 -263.00490791 732.92510796 -265.48248291 735.41381836 C-268.02162485 737.96327496 -270.56367646 740.50982688 -273.10546875 743.05664062 C-278.07312882 748.03495631 -283.03759686 753.01644371 -288 758 C-286.1602241 761.12412326 -284.39629675 763.86331007 -281.890625 766.48828125 C-281.30442383 767.10799805 -280.71822266 767.72771484 -280.11425781 768.36621094 C-279.49905273 769.00848633 -278.88384766 769.65076172 -278.25 770.3125 C-276.97827551 771.65670955 -275.70743094 773.00175214 -274.4375 774.34765625 C-273.83550781 774.98461426 -273.23351563 775.62157227 -272.61328125 776.27783203 C-270.24130413 778.80990325 -267.96629166 781.41794404 -265.703125 784.046875 C-263.50634095 786.56612276 -261.25310381 789.03102996 -259 791.5 C-255.54424587 795.28934126 -252.1347711 799.11083698 -248.76953125 802.98046875 C-245.22423046 807.02665089 -241.60541001 811.00743187 -238 815 C-233.24141648 820.26957236 -228.5029228 825.55193805 -223.83984375 830.90625 C-220.26630337 834.97295412 -216.6297047 838.98345603 -213 843 C-219.39775533 850.7101154 -226.36443732 857.6695177 -233.96875 864.1875 C-236.23638572 866.2109288 -238.3657695 868.33653347 -240.5 870.5 C-243.86114482 873.9071879 -247.33701203 877.07458174 -250.96875 880.1875 C-253.23638572 882.2109288 -255.3657695 884.33653347 -257.5 886.5 C-260.86114482 889.9071879 -264.33701203 893.07458174 -267.96875 896.1875 C-271.03974317 898.92777083 -273.88786876 901.87946902 -276.77734375 904.80859375 C-279.41715567 907.41129057 -282.19059699 909.81515457 -285.00390625 912.2265625 C-288.49167866 915.32528789 -291.74144373 918.66344637 -295 922 C-298.1205998 920.6137057 -300.24145627 919.00708912 -302.64770508 916.59521484 C-303.34555618 915.90044037 -304.04340729 915.20566589 -304.7624054 914.48983765 C-305.50725693 913.7378006 -306.25210846 912.98576355 -307.01953125 912.2109375 C-308.18472542 911.045056 -308.18472542 911.045056 -309.37345886 909.85562134 C-311.01737633 908.20868327 -312.65886313 906.55931595 -314.2980957 904.90771484 C-316.78747093 902.40021134 -319.28462575 899.9006744 -321.78320312 897.40234375 C-323.38328261 895.79734353 -324.98290648 894.19188894 -326.58203125 892.5859375 C-327.32081009 891.84604584 -328.05958893 891.10615417 -328.820755 890.34384155 C-332.79921862 886.32949254 -336.58941331 882.21776427 -340.28141785 877.93972778 C-343.1689941 874.68058078 -346.26125404 871.63560193 -349.359375 868.578125 C-350.03043274 867.91085388 -350.70149048 867.24358276 -351.3928833 866.55609131 C-353.5094774 864.45158111 -355.62931242 862.35038467 -357.75 860.25 C-360.5601925 857.4664444 -363.3670222 854.6795599 -366.171875 851.890625 C-366.81251892 851.25827942 -367.45316284 850.62593384 -368.11322021 849.97442627 C-370.98138142 847.12211286 -373.70677606 844.3532401 -376 841 C-374.41621981 837.2549286 -372.07558699 834.7072052 -369.3125 831.75 C-368.83337158 831.23477783 -368.35424316 830.71955566 -367.8605957 830.1887207 C-366.24523637 828.45455859 -364.62291486 826.7270916 -363 825 C-361.80968517 823.72806169 -360.61958718 822.45592044 -359.4296875 821.18359375 C-356.89846648 818.47928923 -354.36428659 815.77779637 -351.828125 813.078125 C-348.19035713 809.20495051 -344.56202381 805.32306703 -340.9375 801.4375 C-340.07741333 800.51553833 -340.07741333 800.51553833 -339.19995117 799.57495117 C-338.04454664 798.33630939 -336.88919171 797.09762135 -335.73388672 795.85888672 C-332.24757109 792.12123434 -328.75984816 788.38489458 -325.27172852 784.64892578 C-322.22843609 781.38908232 -319.18706514 778.12747385 -316.1484375 774.86328125 C-315.51679687 774.18523438 -314.88515625 773.5071875 -314.234375 772.80859375 C-313.0280536 771.51357225 -311.82229058 770.21803031 -310.6171875 768.921875 C-310.070625 768.33535156 -309.5240625 767.74882813 -308.9609375 767.14453125 C-308.45272461 766.59490723 -307.94451172 766.0452832 -307.42089844 765.47900391 C-306.18965219 764.19740773 -304.87050527 763.00138323 -303.5390625 761.82421875 C-302.77722656 760.92123047 -302.77722656 760.92123047 -302 760 C-302.36356677 756.46709931 -303.84965302 754.80352862 -306.3515625 752.390625 C-307.38216797 751.38128906 -307.38216797 751.38128906 -308.43359375 750.3515625 C-309.15675781 749.65804687 -309.87992188 748.96453125 -310.625 748.25 C-315.39494703 743.62938833 -319.96987747 738.96685848 -324.29833984 733.92871094 C-327.05382123 730.80556848 -330.02515455 727.9122518 -333 725 C-337.19070606 720.85736252 -341.22690628 716.69060073 -345.03125 712.1875 C-348.48421457 708.3508727 -352.20559732 704.77569637 -355.87353516 701.14599609 C-359.55011662 697.49306458 -363.07012201 693.7815978 -366.3984375 689.8046875 C-368.92992441 686.95213396 -371.76484638 684.41383275 -374.59375 681.859375 C-376 680 -376 680 -375.9453125 678 C-374.77844551 675.53125661 -373.36998745 674.11404233 -371.375 672.25 C-368.69375188 669.67297 -366.15152021 667.08923572 -363.75 664.25 C-360.66438388 660.6548326 -357.36802377 657.32662213 -354 654 C-350.71531047 650.75549016 -347.49265929 647.52077564 -344.5 644 C-341.02389423 639.9104638 -337.21750344 636.1903946 -333.40234375 632.421875 C-330.65674514 629.69691999 -328.00730048 626.94976527 -325.5 624 C-322.50722913 620.4790931 -319.28378289 617.24557598 -316 614 C-312.52762687 610.5513659 -309.06013464 607.10616294 -305.75 603.5 C-305.20859375 602.9121875 -304.6671875 602.324375 -304.109375 601.71875 C-302.63846611 599.78082406 -302.63846611 599.78082406 -303 596 C-304.93555877 593.5255699 -304.93555877 593.5255699 -307.56640625 591.078125 C-308.03811752 590.61444519 -308.5098288 590.15076538 -308.99583435 589.67303467 C-310.5088954 588.18895206 -312.03487039 586.71906927 -313.5625 585.25 C-315.54723846 583.32206003 -317.52651455 581.38859713 -319.50390625 579.453125 C-320.23524277 578.73944763 -320.23524277 578.73944763 -320.98135376 578.01135254 C-323.55220929 575.48598774 -326.00949399 572.92000489 -328.33984375 570.171875 C-333.819266 563.74211673 -339.99877334 557.93623142 -346 552 C-360.28561282 537.86910501 -360.28561282 537.86910501 -365.49658203 531.73046875 C-368.15599182 528.66942675 -371.0502082 525.84419789 -373.9375 523 C-374.52595703 522.41605469 -375.11441406 521.83210937 -375.72070312 521.23046875 C-377.14479793 519.81795195 -378.5720525 518.4086219 -380 517 C-378.73642662 514.26225768 -377.4190618 512.14301955 -375.359375 509.9453125 C-374.79790771 509.34517334 -374.23644043 508.74503418 -373.65795898 508.12670898 C-373.02833252 507.46614502 -372.39870605 506.80558105 -371.75 506.125 C-371.07976807 505.41609619 -370.40953613 504.70719238 -369.71899414 503.97680664 C-360.81790436 494.64531338 -351.63565776 485.58436302 -342.47363281 476.51025391 C-335.17966123 469.34899662 -335.17966123 469.34899662 -328.33984375 461.76171875 C-325.59785939 458.50975913 -322.52033242 455.74853615 -319.3203125 452.9609375 C-306.02280941 441.97769864 -306.02280941 441.97769864 -300.24487305 426.54638672 C-300.3350107 422.90248243 -300.5743842 419.28757799 -300.890625 415.65673828 C-301.07313961 411.2234259 -300.24550681 407.06798571 -299.3125 402.75 C-299.13444824 401.92516113 -298.95639648 401.10032227 -298.77294922 400.25048828 C-291.15520688 366.83434486 -273.63868571 336.60797702 -250 312 C-249.46213867 311.43490723 -248.92427734 310.86981445 -248.37011719 310.28759766 C-237.28497421 298.693345 -225.29151644 288.97330488 -212 280 C-215.59509155 270.86564352 -219.23710731 261.75460656 -223.07421875 252.71875 C-235.65496362 223.08840868 -247.66744023 193.21575758 -253.875 161.5 C-254.06618408 160.52345459 -254.25736816 159.54690918 -254.4543457 158.54077148 C-257.72276339 140.631979 -258.26981665 122.97879296 -258.125 104.8125 C-258.11493757 102.58659262 -258.10581756 100.36068078 -258.09765625 98.13476562 C-258.07593027 92.75641061 -258.04271778 87.3782272 -258 82 C-237.12663376 92.10394284 -227.13896354 117.97637342 -217.84375 137.6875 C-201.37274113 172.52061837 -180.30015602 203.87435383 -156.35546875 234.01953125 C-153.50125179 237.63108604 -150.73804591 241.29993796 -148 245 C-144.3401143 244.39960377 -141.37605276 243.38413304 -138.05224609 241.75024414 C-137.09289154 241.28207779 -136.13353699 240.81391144 -135.14511108 240.33155823 C-134.1149588 239.82124557 -133.08480652 239.31093292 -132.0234375 238.78515625 C-130.94357574 238.25538681 -129.86371399 237.72561737 -128.75112915 237.17979431 C-126.45837859 236.05353251 -124.16702031 234.92443266 -121.87695312 233.79272461 C-118.43933488 232.0942862 -114.9974649 230.40474853 -111.5546875 228.71679688 C-101.43725753 223.74510661 -91.34477659 218.72911627 -81.35546875 213.50390625 C-80.61835663 213.12025406 -79.88124451 212.73660187 -79.12179565 212.34132385 C-71.72005897 208.43006857 -64.7923864 203.88254168 -58 199 C-57.030625 198.31035156 -56.06125 197.62070312 -55.0625 196.91015625 C-48.78793827 192.19489781 -44.50965206 187.01930413 -41 180 C-68.43100158 178.60257162 -102.61829312 185.38669785 -124.9609375 202.125 C-128.41006101 205.29660783 -130.65044495 208.98366657 -133 213 C-134.0512011 214.63233192 -135.11356561 216.25753403 -136.1875 217.875 C-136.65542969 218.59429687 -137.12335937 219.31359375 -137.60546875 220.0546875 C-138.9584238 221.94200294 -140.20246231 223.52714843 -142 225 C-144.6875 224.6875 -144.6875 224.6875 -147 224 C-152.12754979 210.94805509 -152.38521691 196.7386009 -152.3125 182.875 C-152.31100952 182.1634375 -152.30951904 181.451875 -152.3079834 180.71875 C-152.26153711 168.29610072 -151.35539082 156.21097546 -149 144 C-148.86078125 143.25443848 -148.7215625 142.50887695 -148.578125 141.74072266 C-144.45924459 120.35972888 -136.33738614 99.56485751 -122 83 C-121.2575 81.989375 -120.515 80.97875 -119.75 79.9375 C-104.5943029 62.04465359 -79.97515844 57.53561995 -58.23632812 53.31835938 C-42.0762894 50.06065708 -27.75195669 44.88274353 -18.02709961 31.09375 C-14.7477199 26.08877593 -11.95241398 20.86439598 -9.1875 15.5625 C-8.07972268 13.4581064 -6.96915612 11.35517812 -5.85546875 9.25390625 C-5.37746826 8.33939697 -4.89946777 7.4248877 -4.40698242 6.48266602 C-3.07984707 4.14089275 -1.76170331 2.03584515 0 0 Z " fill="#005F6A" transform="translate(1743,106)"/>
<path d="M0 0 C2.12718999 1.25851282 4.25480903 2.51630067 6.3828125 3.7734375 C7.47368164 4.42022461 8.56455078 5.06701172 9.68847656 5.73339844 C15.06106553 8.90371708 20.4678959 12.01403541 25.875 15.125 C28.05993529 16.38404612 30.24483093 17.64316103 32.4296875 18.90234375 C33.51475586 19.52737793 34.59982422 20.15241211 35.71777344 20.79638672 C42.22871257 24.54778024 48.73663194 28.30440994 55.24511719 32.06005859 C60.68585336 35.19932246 66.12731477 38.33731497 71.5703125 41.47265625 C83.0544882 48.08972892 94.52196894 54.73383977 105.96582031 61.42041016 C116.52620282 67.58669054 127.12126766 73.6924595 137.71777344 79.79638672 C144.22871257 83.54778024 150.73663194 87.30440994 157.24511719 91.06005859 C162.68585336 94.19932246 168.12731477 97.33731497 173.5703125 100.47265625 C185.0544882 107.08972892 196.52196894 113.73383977 207.96582031 120.42041016 C218.52620282 126.58669054 229.12126766 132.6924595 239.71777344 138.79638672 C246.22871257 142.54778024 252.73663194 146.30440994 259.24511719 150.06005859 C264.68585336 153.19932246 270.12731477 156.33731497 275.5703125 159.47265625 C289.19703689 167.32390255 302.81062831 175.19668316 316.375 183.15527344 C318.79459833 184.56760594 321.22331573 185.96237398 323.65625 187.3515625 C325.00015784 188.12993588 326.3439208 188.90855949 327.6875 189.6875 C328.80511719 190.326875 329.92273437 190.96625 331.07421875 191.625 C335.27151979 194.58384506 338.34233438 197.71450315 340 202.6875 C340.31085957 206.80737308 340.3238376 210.93229911 340.375 215.0625 C340.41238281 216.19945312 340.44976563 217.33640625 340.48828125 218.5078125 C340.57537033 226.75224552 340.57537033 226.75224552 337.9765625 230.9765625 C334.04340825 233.23735195 331.33530657 233.79240593 327 232.6875 C322.46728528 230.65023846 318.24872292 228.12612183 314 225.5625 C312.75243583 224.82720746 311.50388413 224.09358811 310.25439453 223.36157227 C307.71135007 221.86836191 305.17410612 220.36599616 302.64160156 218.85498047 C298.3747125 216.31058383 294.08099425 213.81312348 289.78564453 211.31713867 C286.84885441 209.60979994 283.91630621 207.89535454 280.984375 206.1796875 C271.44177067 200.60320844 261.85942207 195.09538509 252.28222656 189.57861328 C246.85340058 186.45069852 241.42680719 183.31891552 236 180.1875 C233.83334417 178.93748121 231.6666775 177.68748122 229.5 176.4375 C225.16666667 173.9375 220.83333333 171.4375 216.5 168.9375 C215.42733887 168.31866943 214.35467773 167.69983887 213.24951172 167.06225586 C211.08442929 165.81314482 208.91939018 164.56395871 206.75439453 163.31469727 C201.31384294 160.17547691 195.87252784 157.03759437 190.4296875 153.90234375 C178.9455118 147.28527108 167.47803106 140.64116023 156.03417969 133.95458984 C145.47379718 127.78830946 134.87873234 121.6825405 124.28222656 115.57861328 C118.85340058 112.45069852 113.42680719 109.31891552 108 106.1875 C105.83334417 104.93748121 103.6666775 103.68748122 101.5 102.4375 C97.16666667 99.9375 92.83333333 97.4375 88.5 94.9375 C87.42733887 94.31866943 86.35467773 93.69983887 85.24951172 93.06225586 C83.08442929 91.81314482 80.91939018 90.56395871 78.75439453 89.31469727 C73.31384294 86.17547691 67.87252784 83.03759437 62.4296875 79.90234375 C52.92832077 74.42774673 43.42992112 68.94872556 33.96166992 63.41699219 C31.99944465 62.27113415 30.03607817 61.12722797 28.0715332 59.98535156 C23.29985768 57.2103962 18.54021987 54.41893263 13.80899048 51.57540894 C11.46758364 50.17137048 9.11875361 48.78005402 6.76879883 47.39038086 C5.11062147 46.40363603 3.46235858 45.40028968 1.81445312 44.39648438 C-4.29512674 40.79557596 -8.85595013 38.70853253 -16 38.6875 C-21.81233138 40.43119941 -25.76533737 43.28454007 -29.11328125 48.3828125 C-33.26463284 59.17266904 -29.11915225 72.6528162 -24.71484375 82.5859375 C-18.3709907 95.20296001 -8.97563113 102.73339674 3 109.6875 C3.87527344 110.19700195 4.75054688 110.70650391 5.65234375 111.23144531 C15.71085125 117.17027563 15.71085125 117.17027563 26 122.6875 C26 121.6975 26 120.7075 26 119.6875 C25.24380371 119.25928955 24.48760742 118.8310791 23.70849609 118.38989258 C20.87664988 116.78251705 18.04794526 115.16977855 15.22119141 113.5534668 C14.00235228 112.8579774 12.78232039 112.16457365 11.56103516 111.47338867 C-4.71506986 102.25736028 -4.71506986 102.25736028 -7 97.6875 C-7.06996014 95.98047265 -7.08440154 94.27081997 -7.0625 92.5625 C-7.05347656 91.65242187 -7.04445313 90.74234375 -7.03515625 89.8046875 C-7.02355469 89.10601563 -7.01195312 88.40734375 -7 87.6875 C-3.84483796 86.68716164 -2.38212537 86.53085701 0.7253418 87.8046875 C1.70672119 88.38476562 2.68810059 88.96484375 3.69921875 89.5625 C5.36936035 90.53437256 5.36936035 90.53437256 7.07324219 91.52587891 C8.27811419 92.24621959 9.48286361 92.96676536 10.6875 93.6875 C11.94219346 94.42379724 13.19774111 95.15864065 14.45410156 95.89208984 C17.04231984 97.40531035 19.6260418 98.92580704 22.20654297 100.45214844 C26.79540069 103.16250851 31.4160683 105.81576253 36.03833008 108.46875 C46.37628224 114.40354397 56.67405063 120.40709551 66.96630859 126.4206543 C77.52647084 132.5869513 88.12142546 138.69255039 98.71777344 144.79638672 C105.22871257 148.54778024 111.73663194 152.30440994 118.24511719 156.06005859 C123.68585336 159.19932246 129.12731477 162.33731497 134.5703125 165.47265625 C146.0544882 172.08972892 157.52196894 178.73383977 168.96582031 185.42041016 C179.52620282 191.58669054 190.12126766 197.6924595 200.71777344 203.79638672 C206.14659942 206.92430148 211.57319281 210.05608448 217 213.1875 C219.16665583 214.43751879 221.3333225 215.68751878 223.5 216.9375 C227.83333333 219.4375 232.16666667 221.9375 236.5 224.4375 C237.57266113 225.05633057 238.64532227 225.67516113 239.75048828 226.31274414 C241.91557071 227.56185518 244.08060982 228.81104129 246.24560547 230.06030273 C251.68615706 233.19952309 257.12747216 236.33740563 262.5703125 239.47265625 C273.39364167 245.70877925 284.20821351 251.95941602 295 258.25 C295.9605127 258.80953369 296.92102539 259.36906738 297.91064453 259.94555664 C299.72851963 261.00664973 301.54482865 262.07043152 303.359375 263.13720703 C305.15704728 264.19260819 306.9593396 265.2401704 308.765625 266.28076172 C309.64734375 266.79525879 310.5290625 267.30975586 311.4375 267.83984375 C312.21996094 268.29222412 313.00242187 268.74460449 313.80859375 269.21069336 C317.35302487 271.59931456 319.63524411 273.59323232 321 277.6875 C321.17812624 280.3803496 321.08727698 282.98191368 321 285.6875 C320.67 286.0175 320.34 286.3475 320 286.6875 C312.70239994 286.626939 307.28833293 282.72591011 301.1875 279.0625 C300.03522395 278.3822446 298.88221411 277.7032308 297.72851562 277.02539062 C295.33486256 275.61773797 292.94443892 274.20482301 290.55615234 272.78808594 C285.06653711 269.5376485 279.5309078 266.36696165 274 263.1875 C271.83573408 261.93915468 269.67167221 260.69045555 267.5078125 259.44140625 C263.14934612 256.92680564 258.78987809 254.41395339 254.4296875 251.90234375 C242.9455118 245.28527108 231.47803106 238.64116023 220.03417969 231.95458984 C209.47379718 225.78830946 198.87873234 219.6825405 188.28222656 213.57861328 C181.77128743 209.82721976 175.26336806 206.07059006 168.75488281 202.31494141 C163.31414664 199.17567754 157.87268523 196.03768503 152.4296875 192.90234375 C150.24473927 191.64332009 148.05984316 190.38420599 145.875 189.125 C144.8118457 188.51237305 143.74869141 187.89974609 142.65332031 187.26855469 C137.17364723 184.10752562 131.70209497 180.93334406 126.2421875 177.73828125 C124.60660889 176.78127319 124.60660889 176.78127319 122.93798828 175.80493164 C120.87019965 174.59368067 118.80340568 173.38072945 116.73779297 172.16577148 C112.22167497 169.51929658 107.7264592 166.93970539 103 164.6875 C104.48169674 168.5834225 106.45383602 169.86028414 110.0390625 171.8671875 C111.60333984 172.75470703 111.60333984 172.75470703 113.19921875 173.66015625 C114.32972656 174.28792969 115.46023438 174.91570312 116.625 175.5625 C117.80667199 176.2292608 118.98765267 176.89724813 120.16796875 177.56640625 C122.59587167 178.94225901 125.02617139 180.31373058 127.45800781 181.68261719 C132.67281139 184.62563214 137.83515974 187.65793941 143 190.6875 C154.54603146 197.4366525 166.12903744 204.12090306 177.71777344 210.79638672 C184.22871257 214.54778024 190.73663194 218.30440994 197.24511719 222.06005859 C202.68585336 225.19932246 208.12731477 228.33731497 213.5703125 231.47265625 C225.0544882 238.08972892 236.52196894 244.73383977 247.96582031 251.42041016 C255.25622481 255.67732776 262.56140504 259.90805883 269.875 264.125 C270.95088379 264.74544189 272.02676758 265.36588379 273.13525391 266.00512695 C278.66057905 269.19008636 284.18841381 272.37062501 289.71875 275.546875 C295.1303565 278.65642635 300.53469852 281.77823556 305.93310547 284.91064453 C307.96384826 286.08718856 309.9967034 287.26009479 312.03173828 288.42919922 C314.84070498 290.04518288 317.64012841 291.67654861 320.4375 293.3125 C321.26620605 293.78518311 322.09491211 294.25786621 322.94873047 294.74487305 C327.09483027 297.19331902 330.09841436 299.05523737 332 303.6875 C332.1875 307.125 332.1875 307.125 331 310.6875 C325.40138079 316.1625023 317.87743683 319.80240656 311.125 323.625 C309.38838923 324.61734901 307.65178313 325.60970632 305.91546631 326.60256958 C304.12456461 327.6258062 302.3323964 328.64679616 300.54003906 329.66748047 C295.01329764 332.81755314 289.50790181 336.0046448 284 339.1875 C281.83343102 340.4376693 279.66676408 341.68766887 277.5 342.9375 C276.4275 343.55625 275.355 344.175 274.25 344.8125 C264.5 350.4375 264.5 350.4375 261.24951172 352.31274414 C259.08442929 353.56185518 256.91939018 354.81104129 254.75439453 356.06030273 C249.31384294 359.19952309 243.87252784 362.33740563 238.4296875 365.47265625 C227.93767906 371.51805159 217.45518324 377.57860219 207 383.6875 C195.45270484 390.43451194 183.87097973 397.12089318 172.28222656 403.79638672 C166.85340062 406.92430146 161.42677993 410.05603731 156 413.1875 C149.47766725 416.95113919 142.95486238 420.71394622 136.4296875 424.47265625 C125.93767906 430.51805159 115.45518324 436.57860219 105 442.6875 C93.45270484 449.43451194 81.87097973 456.12089318 70.28222656 462.79638672 C64.85340062 465.92430146 59.42677993 469.05603731 54 472.1875 C47.47766725 475.95113919 40.95486238 479.71394622 34.4296875 483.47265625 C22.95063001 490.08677985 11.48797925 496.72745784 0.04956055 503.41162109 C-8.48112461 508.39317628 -17.03143185 513.34030948 -25.59667969 518.26220703 C-30.6341725 521.15834523 -35.66019026 524.06923951 -40.65234375 527.04296875 C-41.51883545 527.55577393 -42.38532715 528.0685791 -43.27807617 528.59692383 C-44.87010672 529.54082105 -46.45788798 530.49194148 -48.0402832 531.4519043 C-52.84145456 534.28773533 -56.99003497 536.38749187 -62.6875 535.0625 C-65.69744565 533.27280259 -66.51102313 531.86850685 -68 528.6875 C-68.28250177 525.77765791 -68.40136716 523.08639186 -68.37473011 520.17939377 C-68.37879084 519.32031546 -68.38285156 518.46123715 -68.38703534 517.57612616 C-68.39701911 514.68362326 -68.38553204 511.79160127 -68.3742218 508.89910889 C-68.37696109 506.809932 -68.38101205 504.72075648 -68.38626546 502.63158441 C-68.3968806 496.87960497 -68.38870489 491.12778028 -68.37751496 485.37580752 C-68.36869235 479.17661272 -68.37711093 472.97743859 -68.38337708 466.77824402 C-68.3923295 455.33126629 -68.38768865 443.88435807 -68.37621326 432.43738686 C-68.36568241 421.86068139 -68.36113707 411.28399369 -68.36250877 400.70728302 C-68.3625928 400.00605502 -68.36267683 399.30482703 -68.36276341 398.5823497 C-68.36311566 395.73588514 -68.36349967 392.88942058 -68.36392899 390.04295603 C-68.36789582 363.32934 -68.35516871 336.61575537 -68.33440243 309.90214832 C-68.31604045 286.16994642 -68.31021801 262.43777465 -68.31567383 238.70556641 C-68.31602026 237.18232953 -68.31636636 235.65909264 -68.31671212 234.13585576 C-68.31688311 233.38279682 -68.31705411 232.62973788 -68.31723029 231.85385897 C-68.31808383 228.06303789 -68.31890762 224.27221681 -68.31969929 220.48139572 C-68.31985637 219.73352242 -68.32001345 218.98564912 -68.32017529 218.21511299 C-68.32416637 198.38695812 -68.31868819 178.55880616 -68.310188 158.73065305 C-68.30928096 156.59671511 -68.30837531 154.46277718 -68.30747276 152.32883924 C-68.30687165 150.91323164 -68.30626303 149.49762405 -68.30564686 148.08201645 C-68.30142627 138.21493781 -68.30084692 128.34786488 -68.30275235 118.48078563 C-68.3051963 105.7616297 -68.30090166 93.04251221 -68.28554235 80.32336226 C-68.27829561 74.18969259 -68.27422371 68.05606513 -68.27878571 61.92239189 C-68.28285997 56.30790389 -68.27770261 50.69350305 -68.26515963 45.07902828 C-68.26223007 43.04740455 -68.26266703 41.01577261 -68.26680271 38.98415098 C-68.27191453 36.22232045 -68.26471466 33.46078103 -68.25447559 30.69897079 C-68.25887208 29.91064002 -68.26326856 29.12230924 -68.26779827 28.31008965 C-68.18797004 17.00020674 -65.07483783 7.79573447 -57.3125 -0.5625 C-39.52075501 -17.31945307 -18.68488757 -11.21061909 0 0 Z " fill="#005F6A" transform="translate(973,545.3125)"/>
<path d="M0 0 C130.46256684 0 130.46256684 0 149.6875 18.1875 C165.22589076 34.63024154 167.67697894 53.48748584 167.13623047 75.13085938 C166.28551983 93.04761826 158.0360391 108.83110601 145.21484375 121.14453125 C140.11287553 125.41866689 134.55707707 129.52057469 128 131 C138.61590632 151.58206881 138.61590632 151.58206881 149.36083984 172.09692383 C153.10753666 179.19336258 156.81664945 186.30918381 160.52441406 193.42602539 C164.1985627 200.47447698 167.89363197 207.51163462 171.61523438 214.53515625 C174.49519059 219.98667958 177.24057154 225.48114308 180 231 C161.85 231 143.7 231 125 231 C115.625 212.6875 115.625 212.6875 112.73681641 207.04174805 C107.27632016 196.37882427 101.73823538 185.75944419 96.14337158 175.16647339 C93.2047734 169.59838437 90.28663204 164.01973493 87.375 158.4375 C87.06385254 157.84525635 86.75270508 157.2530127 86.43212891 156.64282227 C85.52122293 154.90842525 84.6159723 153.17106166 83.7109375 151.43359375 C83.18806152 150.43384521 82.66518555 149.43409668 82.12646484 148.40405273 C81 146 81 146 81 144 C70.77 144 60.54 144 50 144 C50 172.71 50 201.42 50 231 C33.5 231 17 231 0 231 C0 154.77 0 78.54 0 0 Z M50 40 C50 61.12 50 82.24 50 104 C55.671875 104.0825 61.34375 104.165 67.1875 104.25 C68.94860107 104.28641602 70.70970215 104.32283203 72.52416992 104.36035156 C86.46616766 104.52806817 98.09395346 102.60216569 108.48828125 92.5625 C114.84845845 85.65823684 116 77.08614234 116 68 C115.27636843 60.05135942 113.01398841 54.08575004 107.375 48.3125 C91.86512196 36.32399733 67.35705615 40 50 40 Z " fill="#005F6A" transform="translate(1971,1538)"/>
<path d="M0 0 C16.5 0 33 0 50 0 C50 31.02 50 62.04 50 94 C78.71 94 107.42 94 137 94 C137 62.98 137 31.96 137 0 C153.83 0 170.66 0 188 0 C188 76.23 188 152.46 188 231 C171.17 231 154.34 231 137 231 C137 199.98 137 168.96 137 137 C108.29 137 79.58 137 50 137 C50 168.02 50 199.04 50 231 C33.5 231 17 231 0 231 C0 154.77 0 78.54 0 0 Z " fill="#005F6A" transform="translate(1384,1538)"/>
<path d="M0 0 C20.79 0 41.58 0 63 0 C65.784375 7.92 68.56875 15.84 71.4375 24 C77.81513262 42.13146049 84.20514887 60.25843839 90.625 78.375 C90.97120392 79.35200867 91.31740784 80.32901733 91.67410278 81.33563232 C94.11524464 88.22404705 96.5574846 95.11207221 99 102 C101.79244188 109.87472537 104.58426632 117.74966908 107.375 125.625 C107.89238739 127.08484818 107.89238739 127.08484818 108.42022705 128.57418823 C112.61991467 140.42597352 116.80638395 152.2823289 120.9765625 164.14453125 C121.39610199 165.33782043 121.81564148 166.53110962 122.24789429 167.76055908 C124.27280739 173.5209691 126.29637301 179.28184771 128.31787109 185.04345703 C129.06591725 187.17356002 129.81412443 189.30360647 130.5625 191.43359375 C130.92332672 192.46119812 131.28415344 193.48880249 131.65591431 194.54754639 C133.59932281 200.06862407 135.56666345 205.58016123 137.5625 211.08251953 C138.18983032 212.81321434 138.18983032 212.81321434 138.82983398 214.57887268 C139.63626501 216.79914347 140.44555862 219.01837715 141.25805664 221.23643494 C141.61762451 222.22583572 141.97719238 223.21523651 142.34765625 224.23461914 C142.82730835 225.54590538 142.82730835 225.54590538 143.31665039 226.88368225 C144 229 144 229 144 231 C125.85 231 107.7 231 89 231 C78.39916424 201.55323401 78.39916424 201.55323401 74.4375 190.0625 C73.99680106 188.79620437 73.55604557 187.52992843 73.11523438 186.26367188 C72.70466797 185.07451172 72.29410156 183.88535156 71.87109375 182.66015625 C71.32859985 181.09213257 71.32859985 181.09213257 70.77514648 179.49243164 C70 177 70 177 70 175 C44.92 175 19.84 175 -6 175 C-6.66 178.3 -7.32 181.6 -8 185 C-8.46154437 186.72459103 -8.95190396 188.44233428 -9.49633789 190.14257812 C-9.77324966 191.01628052 -10.05016144 191.88998291 -10.33546448 192.79016113 C-10.62823776 193.69472046 -10.92101105 194.59927979 -11.22265625 195.53125 C-11.52819931 196.48898315 -11.83374237 197.44671631 -12.14854431 198.43347168 C-12.78897355 200.43757467 -13.43195357 202.44086421 -14.07739258 204.44335938 C-15.06822897 207.51777612 -16.05137133 210.59457205 -17.03320312 213.671875 C-17.65841421 215.62514088 -18.28404987 217.57827092 -18.91015625 219.53125 C-19.20495377 220.45200317 -19.49975128 221.37275635 -19.80348206 222.32141113 C-20.07724167 223.16989624 -20.35100128 224.01838135 -20.63305664 224.89257812 C-20.87351212 225.63963013 -21.11396759 226.38668213 -21.36170959 227.15637207 C-22 229 -22 229 -23 231 C-40.16 231 -57.32 231 -75 231 C-71.62520214 218.62574117 -71.62520214 218.62574117 -70.07739258 213.92919922 C-69.72820267 212.8649472 -69.37901276 211.80069519 -69.01924133 210.70419312 C-68.64808701 209.58235626 -68.27693268 208.46051941 -67.89453125 207.3046875 C-67.28739675 205.45777985 -66.68026284 203.61087199 -66.0731535 201.76395607 C-65.43075337 199.81144863 -64.78699827 197.85939291 -64.14282227 195.9074707 C-62.78836383 191.80317047 -61.43776488 187.69760675 -60.08789062 183.59179688 C-59.62906608 182.19634772 -59.17023428 180.80090094 -58.71139526 179.40545654 C-58.37025003 178.36794376 -58.37025003 178.36794376 -58.02221298 177.30947113 C-57.33094138 175.20762369 -56.63929806 173.10589891 -55.94754028 171.00421143 C-52.26296552 159.80885283 -48.59922529 148.60677826 -44.94589233 137.40118408 C-38.43996397 117.44659187 -31.90527699 97.50147318 -25.36317444 77.55871964 C-16.88491645 51.71358067 -8.43723681 25.85856838 0 0 Z M31 48 C27.53158995 56.1804764 24.79656639 64.56368067 22.12109375 73.02734375 C21.66343219 74.46651839 21.20550568 75.9056088 20.74732971 77.34461975 C19.79284619 80.34514218 18.8408794 83.34644702 17.89086914 86.34838867 C16.68246326 90.16646733 15.46878555 93.98284413 14.25332546 97.79868221 C13.3086685 100.7657978 12.36632555 103.73364431 11.42469978 106.7017231 C10.97840158 108.10789894 10.53153236 109.5138937 10.0840435 110.91969109 C9.45538835 112.89619453 8.82973967 114.87362671 8.20483398 116.85131836 C7.85049789 117.96921249 7.4961618 119.08710663 7.13108826 120.23887634 C5.65962055 125.13183849 4.3443805 130.07060482 3 135 C21.48 135 39.96 135 59 135 C57.43722839 127.81659722 57.43722839 127.81659722 55.44702148 120.83276367 C55.15560776 119.92190506 54.86419403 119.01104645 54.56394958 118.07258606 C54.25280716 117.11406235 53.94166473 116.15553864 53.62109375 115.16796875 C53.29266983 114.14519333 52.96424591 113.12241791 52.62586975 112.06864929 C51.56685941 108.77370262 50.50224955 105.48059602 49.4375 102.1875 C48.71056604 99.92931876 47.98400456 97.67101759 47.2578125 95.41259766 C45.82880808 90.97049585 44.39767239 86.52909107 42.96435547 82.08837891 C41.28563618 76.88715084 39.61158816 71.68444393 37.94140625 66.48046875 C35.9638444 60.31937514 33.98365137 54.15913594 32 48 C31.67 48 31.34 48 31 48 Z " fill="#005F6A" transform="translate(1737,1538)"/>
<path d="M0 0 C20.79 0 41.58 0 63 0 C65.784375 7.92 68.56875 15.84 71.4375 24 C77.81513262 42.13146049 84.20514887 60.25843839 90.625 78.375 C90.97120392 79.35200867 91.31740784 80.32901733 91.67410278 81.33563232 C94.11524464 88.22404705 96.5574846 95.11207221 99 102 C101.79244188 109.87472537 104.58426632 117.74966908 107.375 125.625 C107.89238739 127.08484818 107.89238739 127.08484818 108.42022705 128.57418823 C112.61991467 140.42597352 116.80638395 152.2823289 120.9765625 164.14453125 C121.39610199 165.33782043 121.81564148 166.53110962 122.24789429 167.76055908 C124.27280739 173.5209691 126.29637301 179.28184771 128.31787109 185.04345703 C129.06591725 187.17356002 129.81412443 189.30360647 130.5625 191.43359375 C130.92332672 192.46119812 131.28415344 193.48880249 131.65591431 194.54754639 C133.59932281 200.06862407 135.56666345 205.58016123 137.5625 211.08251953 C138.18983032 212.81321434 138.18983032 212.81321434 138.82983398 214.57887268 C139.63626501 216.79914347 140.44555862 219.01837715 141.25805664 221.23643494 C141.61762451 222.22583572 141.97719238 223.21523651 142.34765625 224.23461914 C142.82730835 225.54590538 142.82730835 225.54590538 143.31665039 226.88368225 C144 229 144 229 144 231 C125.85 231 107.7 231 89 231 C78.39916424 201.55323401 78.39916424 201.55323401 74.4375 190.0625 C73.99680106 188.79620437 73.55604557 187.52992843 73.11523438 186.26367188 C72.70466797 185.07451172 72.29410156 183.88535156 71.87109375 182.66015625 C71.32859985 181.09213257 71.32859985 181.09213257 70.77514648 179.49243164 C70 177 70 177 70 175 C44.92 175 19.84 175 -6 175 C-6.66 178.3 -7.32 181.6 -8 185 C-8.46154437 186.72459103 -8.95190396 188.44233428 -9.49633789 190.14257812 C-9.77324966 191.01628052 -10.05016144 191.88998291 -10.33546448 192.79016113 C-10.62823776 193.69472046 -10.92101105 194.59927979 -11.22265625 195.53125 C-11.52819931 196.48898315 -11.83374237 197.44671631 -12.14854431 198.43347168 C-12.78897355 200.43757467 -13.43195357 202.44086421 -14.07739258 204.44335938 C-15.06822897 207.51777612 -16.05137133 210.59457205 -17.03320312 213.671875 C-17.65841421 215.62514088 -18.28404987 217.57827092 -18.91015625 219.53125 C-19.20495377 220.45200317 -19.49975128 221.37275635 -19.80348206 222.32141113 C-20.07724167 223.16989624 -20.35100128 224.01838135 -20.63305664 224.89257812 C-20.87351212 225.63963013 -21.11396759 226.38668213 -21.36170959 227.15637207 C-22 229 -22 229 -23 231 C-40.16 231 -57.32 231 -75 231 C-71.62520214 218.62574117 -71.62520214 218.62574117 -70.07739258 213.92919922 C-69.72820267 212.8649472 -69.37901276 211.80069519 -69.01924133 210.70419312 C-68.64808701 209.58235626 -68.27693268 208.46051941 -67.89453125 207.3046875 C-67.28739675 205.45777985 -66.68026284 203.61087199 -66.0731535 201.76395607 C-65.43075337 199.81144863 -64.78699827 197.85939291 -64.14282227 195.9074707 C-62.78836383 191.80317047 -61.43776488 187.69760675 -60.08789062 183.59179688 C-59.62906608 182.19634772 -59.17023428 180.80090094 -58.71139526 179.40545654 C-58.37025003 178.36794376 -58.37025003 178.36794376 -58.02221298 177.30947113 C-57.33094138 175.20762369 -56.63929806 173.10589891 -55.94754028 171.00421143 C-52.26296552 159.80885283 -48.59922529 148.60677826 -44.94589233 137.40118408 C-38.43996397 117.44659187 -31.90527699 97.50147318 -25.36317444 77.55871964 C-16.88491645 51.71358067 -8.43723681 25.85856838 0 0 Z M31 48 C27.53158995 56.1804764 24.79656639 64.56368067 22.12109375 73.02734375 C21.66343219 74.46651839 21.20550568 75.9056088 20.74732971 77.34461975 C19.79284619 80.34514218 18.8408794 83.34644702 17.89086914 86.34838867 C16.68246326 90.16646733 15.46878555 93.98284413 14.25332546 97.79868221 C13.3086685 100.7657978 12.36632555 103.73364431 11.42469978 106.7017231 C10.97840158 108.10789894 10.53153236 109.5138937 10.0840435 110.91969109 C9.45538835 112.89619453 8.82973967 114.87362671 8.20483398 116.85131836 C7.85049789 117.96921249 7.4961618 119.08710663 7.13108826 120.23887634 C5.65962055 125.13183849 4.3443805 130.07060482 3 135 C21.48 135 39.96 135 59 135 C57.43722839 127.81659722 57.43722839 127.81659722 55.44702148 120.83276367 C55.15560776 119.92190506 54.86419403 119.01104645 54.56394958 118.07258606 C54.25280716 117.11406235 53.94166473 116.15553864 53.62109375 115.16796875 C53.29266983 114.14519333 52.96424591 113.12241791 52.62586975 112.06864929 C51.56685941 108.77370262 50.50224955 105.48059602 49.4375 102.1875 C48.71056604 99.92931876 47.98400456 97.67101759 47.2578125 95.41259766 C45.82880808 90.97049585 44.39767239 86.52909107 42.96435547 82.08837891 C41.28563618 76.88715084 39.61158816 71.68444393 37.94140625 66.48046875 C35.9638444 60.31937514 33.98365137 54.15913594 32 48 C31.67 48 31.34 48 31 48 Z " fill="#005F6A" transform="translate(925,1538)"/>
<path d="M0 0 C61.05 0 122.1 0 185 0 C185 13.86 185 27.72 185 42 C162.89 42 140.78 42 118 42 C118 104.37 118 166.74 118 231 C101.5 231 85 231 68 231 C68 168.63 68 106.26 68 42 C45.56 42 23.12 42 0 42 C0 28.14 0 14.28 0 0 Z " fill="#005F6A" transform="translate(1110,1538)"/>
<path d="M0 0 C11.89165218 9.96037634 18.97649733 23.94706456 21.59765625 39.17578125 C21.87029297 40.69171875 21.87029297 40.69171875 22.1484375 42.23828125 C25.00157856 67.24668285 22.29894841 92.61491748 7.01171875 113.32421875 C-3.82479765 126.60276701 -19.77202204 132.42700251 -36.40234375 134.17578125 C-54.71777172 135.56943424 -74.80843089 133.3312096 -89.31640625 121.1015625 C-103.30927199 108.18305537 -110.51876196 90.53585027 -111.54296875 71.57202148 C-112.38789756 46.3445596 -109.04188628 23.76357324 -91.33984375 4.55078125 C-67.96356757 -17.83497475 -25.43047818 -19.56465761 0 0 Z M-63.40234375 19.17578125 C-64.29566406 19.72105469 -64.29566406 19.72105469 -65.20703125 20.27734375 C-73.33553987 26.16599666 -77.31831587 36.94274537 -79.04272461 46.51171875 C-81.26236909 62.95486919 -80.58380116 81.9434517 -71.09765625 96.125 C-65.21901013 103.23626546 -57.59393448 106.73652772 -48.58984375 107.98828125 C-38.42866844 108.73749233 -30.26307881 105.80385534 -21.77734375 100.55078125 C-10.02420699 88.79764449 -9.10686297 73.18973087 -9.08544922 57.52319336 C-9.25243119 43.9182861 -11.4473448 31.6361566 -21.0625 21.41015625 C-32.62391816 10.55980481 -50.43131187 11.08923836 -63.40234375 19.17578125 Z " fill="#005F6A" transform="translate(1925.40234375,1835.82421875)"/>
<path d="M0 0 C84.59767588 0 84.59767588 0 103.5625 17 C119.33901315 33.69375228 120.65913253 56.24533897 120.13623047 78.00585938 C119.42384497 93.66302019 114.03532629 108.00522131 104 120 C103.35546875 120.79277344 102.7109375 121.58554688 102.046875 122.40234375 C88.0464588 138.03257939 66.76566945 140.20312096 47 142 C31.49 142 15.98 142 0 142 C0 95.14 0 48.28 0 0 Z M31 25 C31 55.03 31 85.06 31 116 C56.24245021 117.25648613 56.24245021 117.25648613 77 106 C86.734133 95.67591955 88.18908354 82.94414087 88.25 69.375 C88.270625 68.24964844 88.29125 67.12429688 88.3125 65.96484375 C88.3621044 55.23789144 86.68066787 43.43193949 79.31640625 35.09375 C65.71076639 22.17249847 49.22041573 25 31 25 Z " fill="#005F6A" transform="translate(1543,1826)"/>
<path d="M0 0 C10.23 0 20.46 0 31 0 C31.01981934 2.69381836 31.03963867 5.38763672 31.06005859 8.16308594 C31.12720088 17.09981654 31.20483593 26.03643433 31.28752708 34.97303391 C31.33730599 40.38710762 31.3836366 45.80116354 31.421875 51.21533203 C31.45896161 56.447955 31.50538263 61.68042209 31.55806351 66.91291046 C31.57648401 68.90138238 31.59163663 70.88988756 31.60334396 72.87841034 C30.93219672 93.62489822 30.93219672 93.62489822 39 112 C45.66956497 116.95060492 53.93087241 117.71122118 62 117 C68.32435089 115.80477297 72.95776931 114.26714908 77 109 C80.96377498 102.20495718 81.15623653 96.09829196 81.20532227 88.4362793 C81.21522186 87.47969925 81.22512146 86.5231192 81.23532104 85.53755188 C81.26684912 82.38313248 81.29165911 79.22869803 81.31640625 76.07421875 C81.33698328 73.88417678 81.35797995 71.69413871 81.37937927 69.50410461 C81.43452255 63.74530198 81.48396598 57.98646397 81.53222656 52.2276001 C81.58249814 46.34896706 81.63815467 40.47038529 81.69335938 34.59179688 C81.80084625 23.06124012 81.9018145 11.53063972 82 0 C92.23 0 102.46 0 113 0 C113.06794414 13.22227756 113.12291318 26.44443798 113.15543652 39.66685104 C113.17105093 45.80742664 113.19221185 51.94787596 113.22631836 58.08837891 C113.25906264 64.02117392 113.27688474 69.95384793 113.28463173 75.88672638 C113.29014826 78.14319003 113.3009203 80.39964753 113.31719017 82.65605927 C113.43709174 99.98366411 113.31954227 116.4558834 100.625 129.875 C99.44338313 130.94687707 98.23532372 131.99048814 97 133 C96.45214844 133.44859375 95.90429688 133.8971875 95.33984375 134.359375 C79.67837978 145.51171418 56.46960109 145.88153364 38.25 142.9375 C27.15348379 140.8852466 16.75555441 136.51120165 9.609375 127.42578125 C-0.87524246 111.62251076 -0.43276366 93.23298204 -0.29296875 75 C-0.28735984 72.8256866 -0.28309588 70.65136936 -0.28010559 68.47705078 C-0.26875873 62.80868701 -0.23938125 57.1405611 -0.20599365 51.47229004 C-0.17507138 45.66645524 -0.16155332 39.86058126 -0.14648438 34.0546875 C-0.11449993 22.70300473 -0.06181731 11.35155954 0 0 Z " fill="#005F6A" transform="translate(1365,1826)"/>
<path d="M0 0 C7.13955968 6.39502459 11.2171277 15.90484441 11.79296875 25.45703125 C11.77126736 31.14279514 11.77126736 31.14279514 10.66015625 32.25390625 C8.01203033 32.66291781 5.38333941 33.01330824 2.72265625 33.31640625 C1.95445557 33.40583496 1.18625488 33.49526367 0.39477539 33.58740234 C-5.21666542 34.20728797 -10.69122759 34.4332274 -16.33984375 34.25390625 C-16.68595703 33.04154297 -16.68595703 33.04154297 -17.0390625 31.8046875 C-19.25737631 24.53598334 -20.80638844 20.17871613 -27.27734375 16.00390625 C-35.99421577 12.83413461 -44.92409561 13.7386557 -53.33984375 17.25390625 C-56.3274725 19.58571406 -57.14313208 20.66377124 -58.33984375 24.25390625 C-58.69865387 28.63138974 -58.72092836 31.30119472 -57.08984375 35.37890625 C-50.00096872 42.79000287 -39.20341326 45.44539695 -29.58984375 48.12890625 C1.7738559 57.39631604 1.7738559 57.39631604 10.05078125 71.6484375 C15.57718546 83.38231686 15.18392312 97.35617129 10.9140625 109.421875 C9.04426042 113.64494823 6.83656343 116.91405977 3.66015625 120.25390625 C3.01175781 120.94226562 2.36335938 121.630625 1.6953125 122.33984375 C-10.09240403 133.80782113 -26.96893614 136.75337729 -42.91699219 136.60961914 C-57.94058776 136.14205854 -73.24897465 133.0254605 -84.33984375 122.25390625 C-92.14700788 112.8992196 -95.54346323 102.26745534 -95.33984375 90.25390625 C-91.42407107 89.58191605 -87.50709155 88.91723883 -83.58984375 88.25390625 C-82.47867187 88.063125 -81.3675 87.87234375 -80.22265625 87.67578125 C-79.15273437 87.4953125 -78.0828125 87.31484375 -76.98046875 87.12890625 C-75.99594727 86.96132812 -75.01142578 86.79375 -73.99707031 86.62109375 C-71.33984375 86.25390625 -71.33984375 86.25390625 -67.33984375 86.25390625 C-67.12070313 87.02734375 -66.9015625 87.80078125 -66.67578125 88.59765625 C-64.20820948 96.70252613 -61.64229542 103.58638621 -54.21484375 108.19140625 C-45.40558985 111.44700008 -34.98744847 111.70296509 -26.1796875 108.2421875 C-22.15195069 106.07866858 -19.77314154 103.55379962 -18.33984375 99.25390625 C-17.80842219 94.68019609 -17.92439565 91.17135414 -19.83984375 86.94140625 C-26.9606844 79.28650255 -39.02445053 77.5242658 -48.77490234 74.75927734 C-62.95780203 70.71659255 -78.31252976 66.24510318 -86.21484375 52.75390625 C-91.78276178 42.318927 -92.14024448 28.99725247 -88.77734375 17.75390625 C-84.7516391 7.46443038 -77.21291075 -0.45783708 -67.26171875 -5.21875 C-46.1531399 -13.79723643 -18.90640835 -14.10878887 0 0 Z " fill="#005F6A" transform="translate(1143.33984375,1833.74609375)"/>
<path d="M0 0 C37.62 0 75.24 0 114 0 C114 8.58 114 17.16 114 26 C100.47 26 86.94 26 73 26 C73 64.28 73 102.56 73 142 C62.44 142 51.88 142 41 142 C41 103.72 41 65.44 41 26 C27.47 26 13.94 26 0 26 C0 17.42 0 8.84 0 0 Z " fill="#005F6A" transform="translate(1199,1826)"/>
<path d="M0 0 C4.10897287 1.2576107 7.65406986 2.77976192 11.359375 4.94921875 C12.88908936 5.83879272 12.88908936 5.83879272 14.44970703 6.74633789 C15.53880371 7.38692139 16.62790039 8.02750488 17.75 8.6875 C18.9057488 9.36182715 20.06184266 10.03556318 21.21826172 10.70874023 C23.61980548 12.10729796 26.01984804 13.50838294 28.41894531 14.91113281 C33.9723187 18.15475911 39.5506203 21.35516677 45.125 24.5625 C54.42309566 29.92234115 63.69937223 35.31858282 72.96582031 40.73291016 C83.52620282 46.89919054 94.12126766 53.0049595 104.71777344 59.10888672 C111.22871257 62.86028024 117.73663194 66.61690994 124.24511719 70.37255859 C129.68585336 73.51182246 135.12731477 76.64981497 140.5703125 79.78515625 C152.0544882 86.40222892 163.52196894 93.04633977 174.96582031 99.73291016 C185.52620282 105.89919054 196.12126766 112.0049595 206.71777344 118.10888672 C213.22871257 121.86028024 219.73663194 125.61690994 226.24511719 129.37255859 C231.68585336 132.51182246 237.12731477 135.64981497 242.5703125 138.78515625 C254.04283217 145.39551282 265.49972312 152.03111939 276.93066406 158.71313477 C282.25533401 161.82330213 287.58692524 164.92101355 292.9296875 168 C293.51083313 168.33491455 294.09197876 168.6698291 294.69073486 169.01489258 C297.49211183 170.62873886 300.29440788 172.24096889 303.09765625 173.8515625 C306.06889282 175.56124742 309.03466075 177.28011334 312 179 C313.42820068 179.81500977 313.42820068 179.81500977 314.88525391 180.64648438 C315.77905762 181.16533203 316.67286133 181.68417969 317.59375 182.21875 C318.38201172 182.67185547 319.17027344 183.12496094 319.98242188 183.59179688 C323.35522818 185.94590466 324.49858401 188.17821384 326 192 C326.302823 195.20992381 326.43968406 197.12063188 325 200 C320.2988252 200.30362113 317.67002103 199.65259924 313.640625 197.24609375 C312.62097656 196.64667969 311.60132813 196.04726563 310.55078125 195.4296875 C309.46152344 194.77226563 308.37226562 194.11484375 307.25 193.4375 C306.09326424 192.75252583 304.93569576 192.06895615 303.77734375 191.38671875 C301.37238917 189.96879658 298.97112441 188.54490821 296.57226562 187.11669922 C291.08114512 183.85423366 285.53802248 180.68193767 280 177.5 C277.83570422 176.25170646 275.67164247 175.00300707 273.5078125 173.75390625 C269.14934612 171.23930564 264.78987809 168.72645339 260.4296875 166.21484375 C248.9455118 159.59777108 237.47803106 152.95366023 226.03417969 146.26708984 C215.47379718 140.10080946 204.87873234 133.9950405 194.28222656 127.89111328 C188.85340058 124.76319852 183.42680719 121.63141552 178 118.5 C175.83334417 117.24998121 173.6666775 115.99998122 171.5 114.75 C167.16666667 112.25 162.83333333 109.75 158.5 107.25 C157.42733887 106.63116943 156.35467773 106.01233887 155.24951172 105.37475586 C153.08442929 104.12564482 150.91939018 102.87645871 148.75439453 101.62719727 C143.31384294 98.48797691 137.87252784 95.35009437 132.4296875 92.21484375 C120.9455118 85.59777108 109.47803106 78.95366023 98.03417969 72.26708984 C87.47379718 66.10080946 76.87873234 59.9950405 66.28222656 53.89111328 C59.78065401 50.14511648 53.28160569 46.3947381 46.78344727 42.64282227 C41.77276444 39.75036587 36.7605312 36.86073806 31.74136353 33.98303223 C29.98271251 32.97451686 28.22466791 31.9649523 26.46679688 30.95507812 C24.27527769 29.69649482 22.08265496 28.43983013 19.88867188 27.18554688 C-1.34615954 14.97926934 -1.34615954 14.97926934 -3 9 C-3.375 5.8125 -3.375 5.8125 -3 3 C-1.5 1.125 -1.5 1.125 0 0 Z " fill="#005F6A" transform="translate(959,606)"/>
<path d="M0 0 C7.03738663 0.29200774 11.9003959 3.51752435 17.8125 7.125 C19.96694207 8.41100407 22.12190794 9.69613094 24.27734375 10.98046875 C25.94192627 11.97892822 25.94192627 11.97892822 27.64013672 12.99755859 C33.0180855 16.20275667 38.44653216 19.31889601 43.875 22.4375 C46.05740988 23.69510737 48.23970091 24.95292103 50.421875 26.2109375 C52.6145405 27.47403269 54.80724889 28.73705344 57 30 C70.67554314 37.87662589 84.33960958 45.77120092 97.96582031 53.73291016 C108.52620282 59.89919054 119.12126766 66.0049595 129.71777344 72.10888672 C136.22871257 75.86028024 142.73663194 79.61690994 149.24511719 83.37255859 C154.68585336 86.51182246 160.12731477 89.64981497 165.5703125 92.78515625 C177.0544882 99.40222892 188.52196894 106.04633977 199.96582031 112.73291016 C210.52620282 118.89919054 221.12126766 125.0049595 231.71777344 131.10888672 C237.14659942 134.23680148 242.57319281 137.36858448 248 140.5 C250.16665583 141.75001879 252.3333225 143.00001878 254.5 144.25 C258.83333333 146.75 263.16666667 149.25 267.5 151.75 C268.5737085 152.36939453 269.64741699 152.98878906 270.75366211 153.62695312 C272.90830624 154.870123 275.06276757 156.11360975 277.21704102 157.35742188 C282.22754121 160.24983147 287.23962635 163.13935227 292.25863647 166.01696777 C294.01728749 167.02548314 295.77533209 168.0350477 297.53320312 169.04492188 C299.72472231 170.30350518 301.91734504 171.56016987 304.11132812 172.81445312 C307.08573217 174.52421011 310.04653453 176.25434308 313 178 C314.01980957 178.59941406 315.03961914 179.19882812 316.09033203 179.81640625 C317.56348877 180.71166016 317.56348877 180.71166016 319.06640625 181.625 C319.94369385 182.15351562 320.82098145 182.68203125 321.72485352 183.2265625 C324.30517502 185.23787867 325.5545559 187.08198785 327 190 C327.29296875 192.45703125 327.29296875 192.45703125 327.1875 194.8125 C327.16042969 195.60269531 327.13335938 196.39289063 327.10546875 197.20703125 C327.05326172 198.09455078 327.05326172 198.09455078 327 199 C323.3558978 200.36565383 322.03637888 200.01622569 318.41796875 198.40234375 C316.99916389 197.59575591 315.58959334 196.7727996 314.1875 195.9375 C313.40761719 195.48850342 312.62773438 195.03950684 311.82421875 194.5769043 C309.20762445 193.06546335 306.60392247 191.533155 304 190 C302.13214457 188.91297209 300.26363886 187.8270609 298.39453125 186.7421875 C294.37064435 184.40321258 290.35180946 182.05583259 286.3359375 179.703125 C279.94718008 175.96365411 273.53883924 172.25874966 267.125 168.5625 C266.04541016 167.94028564 264.96582031 167.31807129 263.85351562 166.67700195 C261.6631748 165.41488483 259.47274498 164.15292215 257.28222656 162.89111328 C250.77128743 159.13971976 244.26336806 155.38309006 237.75488281 151.62744141 C232.31414664 148.48817754 226.87268523 145.35018503 221.4296875 142.21484375 C209.9455118 135.59777108 198.47803106 128.95366023 187.03417969 122.26708984 C176.47379718 116.10080946 165.87873234 109.9950405 155.28222656 103.89111328 C148.77128743 100.13971976 142.26336806 96.38309006 135.75488281 92.62744141 C130.31414664 89.48817754 124.87268523 86.35018503 119.4296875 83.21484375 C107.9455118 76.59777108 96.47803106 69.95366023 85.03417969 63.26708984 C77.74377558 59.01017247 70.43863099 54.77937817 63.125 50.5625 C62.04766602 49.94133301 60.97033203 49.32016602 59.86035156 48.68017578 C54.35892355 45.50943029 48.85576481 42.34170789 43.3515625 39.17578125 C37.94949562 36.06791173 32.55440889 32.94815573 27.16162109 29.82421875 C23.97503982 27.98559827 20.77903352 26.16417683 17.58203125 24.34375 C15.57521525 23.18803046 13.5686912 22.03180378 11.5625 20.875 C10.63856445 20.35470215 9.71462891 19.8344043 8.76269531 19.29833984 C0.78891324 14.66639921 0.78891324 14.66639921 -1 10 C-1.5179375 6.57791292 -1.57212151 3.14424302 0 0 Z " fill="#005F6A" transform="translate(964,590)"/>
<path d="M0 0 C10.23 0 20.46 0 31 0 C31 46.86 31 93.72 31 142 C20.77 142 10.54 142 0 142 C0 95.14 0 48.28 0 0 Z " fill="#005F6A" transform="translate(1723,1826)"/>
<path d="M0 0 C0.82862045 0.00359528 1.65724091 0.00719055 2.51097107 0.01089478 C3.81329178 0.01067574 3.81329178 0.01067574 5.141922 0.01045227 C8.02594967 0.01115171 10.9099136 0.01894554 13.79393005 0.02676392 C15.78790247 0.02862799 17.78187535 0.03005194 19.77584839 0.03105164 C25.03498082 0.03487769 30.29408583 0.04470871 35.5532074 0.05575562 C40.91534555 0.06596786 46.27748811 0.07054885 51.63963318 0.07559204 C62.16894213 0.0863309 72.69823069 0.10340837 83.2275238 0.12442017 C83.2275238 0.78442017 83.2275238 1.44442017 83.2275238 2.12442017 C81.60670838 2.9040139 79.98055597 3.67251171 78.3525238 4.43692017 C77.44760193 4.86617798 76.54268005 5.29543579 75.6103363 5.73770142 C67.9216748 8.88951993 60.42825395 10.64191451 52.1572113 11.30410767 C51.21707184 11.38410004 50.27693237 11.46409241 49.30830383 11.54650879 C37.99692512 12.42017502 26.6892519 12.34300998 15.3525238 12.24942017 C13.18846554 12.23935025 11.02440263 12.23023163 8.8603363 12.22207642 C3.64928029 12.20042672 -1.56154373 12.16612816 -6.7724762 12.12442017 C-6.79934899 10.31199965 -6.81881335 8.49946783 -6.8349762 6.68692017 C-6.84657776 5.67758423 -6.85817932 4.66824829 -6.87013245 3.62832642 C-6.68541889 -1.10772913 -4.11282571 0.00753598 0 0 Z " fill="#005F6A" transform="translate(1549.772476196289,1955.8755798339844)"/>
<path d="M0 0 C28.38 0 56.76 0 86 0 C84.82447364 3.52657909 83.69206901 3.97299662 80.49267578 5.60107422 C79.87634277 5.89771973 79.26000977 6.19436523 78.625 6.5 C77.9944873 6.80824707 77.36397461 7.11649414 76.71435547 7.43408203 C57.80470603 16.40888155 34.23925969 16.51106098 14.546875 9.828125 C9.34099777 7.75090305 4.38063247 5.52884282 0 2 C0 1.34 0 0.68 0 0 Z " fill="#005F6A" transform="translate(1837,1956)"/>
<path d="M0 0 C27.72 0 55.44 0 84 0 C82.77289293 3.68132121 81.03806465 4.71824352 77.77734375 6.6640625 C74.26940184 8.35142696 70.70798404 9.5791481 67 10.75 C66.33605225 10.96060059 65.67210449 11.17120117 64.98803711 11.38818359 C45.37104516 17.27111302 22.74917623 15.09974946 4.66015625 5.81640625 C2 4 2 4 0 0 Z " fill="#005F6A" transform="translate(1379,1956)"/>
<path d="M0 0 C27.06 0 54.12 0 82 0 C78.6991366 6.60172679 71.80312621 8.70912165 65.0078125 11.015625 C46.6548081 16.20123843 24.25250959 15.99029858 7 7 C4.44984966 5.4689875 2.30667687 3.90551567 0 2 C0 1.34 0 0.68 0 0 Z " fill="#005F6A" transform="translate(1061,1956)"/>
<path d="M0 0 C1.29349365 0.00523682 2.5869873 0.01047363 3.91967773 0.01586914 C4.9496714 0.01799156 4.9496714 0.01799156 6.00047302 0.02015686 C8.20144949 0.0257706 10.40232557 0.03832532 12.60327148 0.05102539 C14.09220231 0.05603863 15.58113473 0.06060184 17.07006836 0.06469727 C20.72700223 0.07574446 24.38387707 0.09301826 28.04077148 0.11352539 C28.04077148 4.07352539 28.04077148 8.03352539 28.04077148 12.11352539 C17.48077148 12.11352539 6.92077148 12.11352539 -3.95922852 12.11352539 C-3.95922852 0.15188856 -3.95922852 0.15188856 0 0 Z " fill="#005F6A" transform="translate(1243.959228515625,1955.886474609375)"/>
<path d="M0 0 C1.25159912 0.00523682 2.50319824 0.01047363 3.79272461 0.01586914 C4.78942421 0.01799156 4.78942421 0.01799156 5.80625916 0.02015686 C7.93590735 0.02577021 10.06545175 0.03832485 12.19506836 0.05102539 C13.63582205 0.05603868 15.07657739 0.06060188 16.51733398 0.06469727 C20.05577938 0.07574394 23.59416375 0.09301747 27.13256836 0.11352539 C27.13256836 4.07352539 27.13256836 8.03352539 27.13256836 12.11352539 C16.90256836 12.11352539 6.67256836 12.11352539 -3.86743164 12.11352539 C-3.86743164 0.15311671 -3.86743164 0.15311671 0 0 Z " fill="#005F6A" transform="translate(1726.867431640625,1955.886474609375)"/>
</svg>
